# xmcd CD Database Entry
#
# Track frame offsets:
# 150
# 20494
# 29886
# 42908
# 49496
# 66607
# 80292
# 94211
# 111456
# 127725
# 141690
# 161694
# 178092
# 193131
#
# Disc length: 2793 seconds
#
# Revision: 1
# Processed by: cddbd v1.4b41PL1 Copyright (c) Steve Scherf et al.
# Submitted via: tcd 2.0b
#
DISCID=da0ae70e
DTITLE=Alexandru Andries - Vreme Rea
DYEAR=1900
DGENRE=
TTITLE0=Farmece
TTITLE1=Cea mai frumoasa zi
TTITLE2=Agresiv
TTITLE3=Arc
TTITLE4=Culori
TTITLE5=Amortit
TTITLE6=Vreme rea
TTITLE7=La radio
TTITLE8=Seara, ploaie, parc
TTITLE9=Dimineata
TTITLE10=Nu-mi iese nimic
TTITLE11=Cina in doi
TTITLE12=Pe scena
TTITLE13=Dor de tine
EXTD=2000
EXTT0=
EXTT1=
EXTT2=
EXTT3=
EXTT4=
EXTT5=
EXTT6=
EXTT7=
EXTT8=
EXTT9=
EXTT10=
EXTT11=
EXTT12=
EXTT13=
PLAYORDER=
